<?xml version="1.0" encoding="utf-8"?>
<!-- Generator: Adobe Illustrator 17.0.0, SVG Export Plug-In . SVG Version: 6.00 Build 0)  -->
<!DOCTYPE svg PUBLIC "-//W3C//DTD SVG 1.1//EN" "http://www.w3.org/Graphics/SVG/1.1/DTD/svg11.dtd">
<svg version="1.1" id="Layer_1" xmlns="http://www.w3.org/2000/svg" xmlns:xlink="http://www.w3.org/1999/xlink" x="0px" y="0px"
	 width="161.173px" height="161.173px" viewBox="0 0 161.173 161.173" enable-background="new 0 0 161.173 161.173"
	 xml:space="preserve">
<path fill="#FFFFFF" d="M161.173,120.881c0,22.251-18.036,40.293-40.292,40.293H40.294C18.038,161.173,0,143.132,0,120.881V40.293
	C0,18.042,18.038,0,40.294,0h80.586c22.257,0,40.292,18.042,40.292,40.293V120.881z"/>
<g>
	<linearGradient id="SVGID_1_" gradientUnits="userSpaceOnUse" x1="20.7155" y1="29.6217" x2="141.7155" y2="132.6217">
		<stop  offset="0" style="stop-color:#72BF44"/>
		<stop  offset="0.626" style="stop-color:#29B3A6"/>
		<stop  offset="1" style="stop-color:#00ADDC"/>
	</linearGradient>
	<polygon fill-rule="evenodd" clip-rule="evenodd" fill="url(#SVGID_1_)" points="56.699,121.955 52.702,119.646 52.702,108.985 
		61.308,113.957 80.587,125.079 99.865,113.957 119.128,102.83 119.128,80.58 119.128,58.328 99.865,47.202 80.587,36.082 
		61.308,47.202 42.045,58.328 42.045,80.58 42.045,92.473 42.045,102.83 42.045,113.495 32.818,108.164 32.818,80.586 
		32.818,53.008 56.699,39.217 80.587,25.428 104.472,39.217 128.354,53.008 128.354,80.586 128.354,108.164 104.472,121.955 
		80.587,135.745 	"/>
	<linearGradient id="SVGID_2_" gradientUnits="userSpaceOnUse" x1="20.7124" y1="29.6254" x2="141.7124" y2="132.6254">
		<stop  offset="0" style="stop-color:#72BF44"/>
		<stop  offset="0.626" style="stop-color:#29B3A6"/>
		<stop  offset="1" style="stop-color:#00ADDC"/>
	</linearGradient>
	<polygon fill-rule="evenodd" clip-rule="evenodd" fill="url(#SVGID_2_)" points="80.587,61.413 88.892,66.207 97.202,71.001 
		108.472,65.404 108.472,64.491 94.536,56.447 80.587,48.398 66.636,56.447 52.702,64.491 52.702,68.7 52.702,80.593 52.702,96.695 
		66.636,104.745 80.587,112.79 94.536,104.745 108.472,96.695 97.202,90.187 88.892,94.984 80.587,99.774 72.281,94.984 
		63.969,90.187 63.969,80.593 63.969,71.001 72.281,66.207 	"/>
</g>
</svg>
