<?xml version="1.0" encoding="utf-8"?>
<!-- Generator: Adobe Illustrator 17.0.0, SVG Export Plug-In . SVG Version: 6.00 Build 0)  -->
<!DOCTYPE svg PUBLIC "-//W3C//DTD SVG 1.1//EN" "http://www.w3.org/Graphics/SVG/1.1/DTD/svg11.dtd">
<svg version="1.1" id="Layer_1" xmlns="http://www.w3.org/2000/svg" xmlns:xlink="http://www.w3.org/1999/xlink" x="0px" y="0px"
	 width="488.856px" height="145.305px" viewBox="0 0 488.856 145.305" enable-background="new 0 0 488.856 145.305"
	 xml:space="preserve">
<g>
	<path fill="#1C1C1C" d="M153.235,68.767c0-11.247,8.584-19.452,20.158-19.452c5.868,0,10.976,2.01,14.454,5.923l-3.532,3.423
		c-2.935-3.097-6.52-4.51-10.704-4.51c-8.584,0-14.942,6.195-14.942,14.616c0,8.422,6.358,14.617,14.942,14.617
		c4.185,0,7.77-1.467,10.704-4.564l3.532,3.423c-3.477,3.911-8.586,5.977-14.508,5.977C161.819,88.22,153.235,80.015,153.235,68.767
		z"/>
	<path fill="#1C1C1C" d="M213.608,58.715v5.054c-0.434-0.054-0.815-0.054-1.195-0.054c-5.596,0-9.074,3.423-9.074,9.725v14.345
		h-5.216V58.987h4.998v4.836C204.969,60.455,208.556,58.715,213.608,58.715z"/>
	<path fill="#1C1C1C" d="M249.962,58.987l-13.964,31.678c-2.554,6.085-5.868,7.987-10.269,7.987c-2.772,0-5.598-0.925-7.39-2.663
		l2.228-3.913c1.413,1.359,3.205,2.119,5.162,2.119c2.498,0,4.075-1.141,5.488-4.455l0.923-2.01l-12.714-28.743h5.433l10.053,23.038
		l9.943-23.038H249.962z"/>
	<path fill="#1C1C1C" d="M287.947,73.386c0,8.858-6.14,14.726-14.561,14.726c-4.076,0-7.662-1.576-10.053-4.673v14.888h-5.216
		V58.987h4.998v4.564c2.336-3.205,6.031-4.836,10.271-4.836C281.807,58.715,287.947,64.584,287.947,73.386z M282.677,73.386
		c0-6.085-4.185-10.106-9.727-10.106c-5.488,0-9.672,4.021-9.672,10.106c0,6.14,4.185,10.162,9.672,10.162
		C278.492,83.547,282.677,79.526,282.677,73.386z"/>
	<path fill="#1C1C1C" d="M314.631,86.1c-1.576,1.359-3.967,2.011-6.303,2.011c-5.814,0-9.128-3.207-9.128-9.019V63.28h-4.89v-4.292
		h4.89v-6.303h5.217v6.303h8.258v4.292h-8.258v15.595c0,3.097,1.629,4.836,4.51,4.836c1.52,0,2.988-0.49,4.074-1.359L314.631,86.1z"
		/>
	<path fill="#1C1C1C" d="M320.558,73.386c0-8.584,6.358-14.67,14.998-14.67c8.64,0,14.942,6.086,14.942,14.67
		c0,8.586-6.302,14.726-14.942,14.726C326.916,88.111,320.558,81.971,320.558,73.386z M345.228,73.386
		c0-6.139-4.132-10.106-9.672-10.106c-5.543,0-9.728,3.967-9.728,10.106c0,6.14,4.185,10.162,9.728,10.162
		C341.096,83.547,345.228,79.526,345.228,73.386z"/>
	<path fill="#1C1C1C" d="M392.45,63.008c0,8.259-5.978,13.258-15.868,13.258h-9.399v11.519h-5.434V49.751h14.833
		C386.472,49.751,392.45,54.748,392.45,63.008z M387.016,63.008c0-5.433-3.641-8.53-10.596-8.53h-9.237v17.061h9.237
		C383.375,71.539,387.016,68.442,387.016,63.008z"/>
	<path fill="#1C1C1C" d="M401.531,50.077c0-1.903,1.52-3.424,3.529-3.424c2.011,0,3.532,1.467,3.532,3.316
		c0,1.956-1.465,3.477-3.532,3.477C403.051,53.446,401.531,51.978,401.531,50.077z M402.454,58.987h5.214v28.797h-5.214V58.987z"/>
	<path fill="#1C1C1C" d="M448.206,71.212v16.573h-5.214V71.811c0-5.651-2.826-8.422-7.772-8.422c-5.541,0-9.128,3.314-9.128,9.563
		v14.833h-5.214V58.987h4.997v4.346c2.12-2.933,5.814-4.618,10.378-4.618C443.263,58.715,448.206,62.737,448.206,71.212z"/>
	<path fill="#1C1C1C" d="M488.856,58.987v24.885c0,10.162-5.161,14.78-14.942,14.78c-5.27,0-10.596-1.467-13.745-4.293l2.5-4.02
		c2.661,2.282,6.846,3.749,11.084,3.749c6.79,0,9.887-3.152,9.887-9.672v-2.282c-2.497,2.988-6.246,4.455-10.378,4.455
		c-8.311,0-14.616-5.651-14.616-13.964s6.305-13.91,14.616-13.91c4.293,0,8.205,1.576,10.651,4.727v-4.455H488.856z M483.748,72.625
		c0-5.596-4.129-9.346-9.887-9.346c-5.814,0-9.945,3.749-9.945,9.346c0,5.542,4.132,9.4,9.945,9.4
		C479.619,82.025,483.748,78.167,483.748,72.625z"/>
</g>
<linearGradient id="SVGID_1_" gradientUnits="userSpaceOnUse" x1="-18.4304" y1="5.3634" x2="143.5696" y2="139.3634">
	<stop  offset="0" style="stop-color:#72BF44"/>
	<stop  offset="0.626" style="stop-color:#29B3A6"/>
	<stop  offset="1" style="stop-color:#00ADDC"/>
</linearGradient>
<polygon fill-rule="evenodd" clip-rule="evenodd" fill="url(#SVGID_1_)" points="31.455,127.142 26.19,124.1 26.19,110.058 
	37.526,116.607 62.919,131.256 88.311,116.607 113.684,101.951 113.684,72.644 113.684,43.334 88.311,28.68 62.919,14.033 
	37.526,28.68 12.152,43.334 12.152,72.644 12.152,88.309 12.152,101.951 12.152,115.998 0,108.977 0,72.652 0,36.327 31.455,18.162 
	62.919,0 94.38,18.162 125.837,36.327 125.837,72.652 125.837,108.977 94.38,127.142 62.919,145.305 "/>
<linearGradient id="SVGID_2_" gradientUnits="userSpaceOnUse" x1="-18.4345" y1="5.3684" x2="143.5655" y2="139.3683">
	<stop  offset="0" style="stop-color:#72BF44"/>
	<stop  offset="0.626" style="stop-color:#29B3A6"/>
	<stop  offset="1" style="stop-color:#00ADDC"/>
</linearGradient>
<polygon fill-rule="evenodd" clip-rule="evenodd" fill="url(#SVGID_2_)" points="62.919,47.397 73.858,53.712 84.804,60.026 
	99.648,52.654 99.648,51.452 81.293,40.856 62.919,30.254 44.544,40.856 26.19,51.452 26.19,56.996 26.19,72.661 26.19,93.87 
	44.544,104.473 62.919,115.069 81.293,104.473 99.648,93.87 84.804,85.297 73.858,91.616 62.919,97.926 51.979,91.616 
	41.031,85.297 41.031,72.661 41.031,60.026 51.979,53.712 "/>
</svg>
