<?xml version="1.0" encoding="UTF-8"?>
<!DOCTYPE svg PUBLIC "-//W3C//DTD SVG 1.1//EN" "http://www.w3.org/Graphics/SVG/1.1/DTD/svg11.dtd">
<svg version="1.1" xmlns="http://www.w3.org/2000/svg" xmlns:xlink="http://www.w3.org/1999/xlink" x="0" y="0" width="177.461" height="204.916" viewBox="0, 0, 177.461, 204.916">
  <defs>
    <linearGradient id="Gradient_1" gradientUnits="userSpaceOnUse" x1="-22.481" y1="7.79" x2="202.28" y2="199.114">
      <stop offset="0" stop-color="#72BF44"/>
      <stop offset="0.626" stop-color="#29B3A6"/>
      <stop offset="1" stop-color="#00ADDC"/>
    </linearGradient>
    <linearGradient id="Gradient_2" gradientUnits="userSpaceOnUse" x1="-22.487" y1="7.797" x2="202.275" y2="199.121">
      <stop offset="0" stop-color="#72BF44"/>
      <stop offset="0.626" stop-color="#29B3A6"/>
      <stop offset="1" stop-color="#00ADDC"/>
    </linearGradient>
  </defs>
  <g id="Layer_1">
    <g>
      <path d="M44.36,179.301 L36.935,175.012 L36.935,155.209 L52.921,164.444 L88.732,185.104 L124.542,164.444 L160.323,143.776 L160.323,102.446 L160.323,61.112 L124.542,40.446 L88.732,19.79 L52.921,40.446 L17.139,61.112 L17.139,102.446 L17.139,124.537 L17.139,143.776 L17.139,163.586 L0,153.684 L0,102.457 L0,51.23 L44.36,25.613 L88.732,0 L133.099,25.613 L177.461,51.23 L177.461,102.457 L177.461,153.684 L133.099,179.301 L88.732,204.916 z" fill="url(#Gradient_1)"/>
      <path d="M88.732,66.843 L104.159,75.748 L119.595,84.653 L140.53,74.256 L140.53,72.56 L114.643,57.618 L88.732,42.667 L62.818,57.618 L36.935,72.56 L36.935,80.379 L36.935,102.47 L36.935,132.38 L62.818,147.333 L88.732,162.277 L114.643,147.333 L140.53,132.38 L119.595,120.291 L104.159,129.202 L88.732,138.099 L73.304,129.202 L57.864,120.291 L57.864,102.47 L57.864,84.653 L73.304,75.748 z" fill="url(#Gradient_2)"/>
    </g>
  </g>
</svg>
