<?xml version="1.0" encoding="UTF-8"?>
<!DOCTYPE svg PUBLIC "-//W3C//DTD SVG 1.1//EN" "http://www.w3.org/Graphics/SVG/1.1/DTD/svg11.dtd">
<svg version="1.1" xmlns="http://www.w3.org/2000/svg" xmlns:xlink="http://www.w3.org/1999/xlink" x="0" y="0" width="177.461" height="204.916" viewBox="0, 0, 177.461, 204.916">
  <g id="Layer_1" transform="translate(-0, 0)">
    <path d="M44.359,179.302 L36.936,175.012 L36.936,155.209 L52.921,164.445 L88.731,185.103 L124.54,164.445 L160.323,143.776 L160.323,102.446 L160.323,61.112 L124.54,40.446 L88.731,19.79 L52.921,40.446 L17.139,61.112 L17.139,102.446 L17.139,124.538 L17.139,143.776 L17.139,163.586 L0,153.685 L0,102.457 L0,51.23 L44.359,25.613 L88.731,-0 L133.099,25.613 L177.461,51.23 L177.461,102.457 L177.461,153.685 L133.099,179.302 L88.731,204.916 z" fill="#FFFFFF"/>
    <path d="M88.731,66.841 L104.158,75.747 L119.595,84.652 L140.528,74.255 L140.528,72.56 L114.643,57.617 L88.731,42.666 L62.818,57.617 L36.936,72.56 L36.936,80.378 L36.936,102.47 L36.936,132.38 L62.818,147.333 L88.731,162.276 L114.643,147.333 L140.528,132.38 L119.595,120.29 L104.158,129.201 L88.731,138.1 L73.303,129.201 L57.864,120.29 L57.864,102.47 L57.864,84.652 L73.303,75.747 z" fill="#FFFFFF"/>
  </g>
</svg>
